# xmcd
#
# Track frame offsets:
#	150
#	13875
#	38100
#	84600
#	98475
#
# Disc length: 1634 seconds
#
# Revision: 1
# Processed by: cddbd v1.5.1PL0 Copyright (c) Steve Scherf et al.
# Submitted via: CDex 1.50Beta5
#
DISCID=31066005
DTITLE=堀江由衣＆小松里賀 - 魔探偵ロキ キャラクターCD 2
DYEAR=2003
DGENRE=Anime
TTITLE0=世界はフシギに満ちている
TTITLE1=そばにいたいの
TTITLE2=繭良＆玲也 Mini Drama
TTITLE3=世界はフシギに満ちている(K)
TTITLE4=そばにいたいの(K)
EXTD=
EXTT0=
EXTT1=
EXTT2=
EXTT3=
EXTT4=
PLAYORDER=
